<?xml version="1.0" encoding="UTF-8"?>
<svg xmlns="http://www.w3.org/2000/svg" version="1.1" width="250" height="250" viewBox="0 0 250 250"><rect x="0" y="0" width="250" height="250" fill="#ffffff"/><g transform="scale(7.576)"><g transform="translate(2,2)"><g><g transform="translate(3.5,3.5)"><path fill-rule="evenodd" d="M-3.5 -3.5L3.5 -3.5L3.5 3.5L-3.5 3.5ZM-2.5 -2.5L-2.5 2.5L2.5 2.5L2.5 -2.5Z" fill="#000000"/><path fill-rule="evenodd" d="M-1.5 -1.5L1.5 -1.5L1.5 1.5L-1.5 1.5Z" fill="#000000"/></g></g><g><g transform="translate(25.5,3.5)"><g transform="rotate(90)"><path fill-rule="evenodd" d="M-3.5 -3.5L3.5 -3.5L3.5 3.5L-3.5 3.5ZM-2.5 -2.5L-2.5 2.5L2.5 2.5L2.5 -2.5Z" fill="#000000"/><path fill-rule="evenodd" d="M-1.5 -1.5L1.5 -1.5L1.5 1.5L-1.5 1.5Z" fill="#000000"/></g></g></g><g><g transform="translate(3.5,25.5)"><g transform="rotate(-90)"><path fill-rule="evenodd" d="M-3.5 -3.5L3.5 -3.5L3.5 3.5L-3.5 3.5ZM-2.5 -2.5L-2.5 2.5L2.5 2.5L2.5 -2.5Z" fill="#000000"/><path fill-rule="evenodd" d="M-1.5 -1.5L1.5 -1.5L1.5 1.5L-1.5 1.5Z" fill="#000000"/></g></g></g><path fill-rule="evenodd" d="M8 0L8 4L10 4L10 3L11 3L11 4L12 4L12 2L11 2L11 0ZM12 0L12 1L13 1L13 0ZM14 0L14 1L15 1L15 0ZM17 0L17 3L16 3L16 4L15 4L15 3L14 3L14 2L13 2L13 3L14 3L14 4L13 4L13 5L11 5L11 6L10 6L10 7L9 7L9 5L8 5L8 7L9 7L9 8L10 8L10 7L11 7L11 6L12 6L12 8L11 8L11 9L8 9L8 10L6 10L6 11L7 11L7 12L4 12L4 11L3 11L3 9L2 9L2 8L0 8L0 10L1 10L1 11L0 11L0 12L1 12L1 13L2 13L2 15L3 15L3 13L2 13L2 12L4 12L4 13L7 13L7 14L4 14L4 16L1 16L1 15L0 15L0 18L3 18L3 19L2 19L2 20L0 20L0 21L4 21L4 20L5 20L5 21L7 21L7 20L8 20L8 22L9 22L9 23L8 23L8 25L10 25L10 27L11 27L11 28L10 28L10 29L11 29L11 28L12 28L12 29L14 29L14 27L15 27L15 29L16 29L16 28L17 28L17 29L18 29L18 27L19 27L19 28L20 28L20 29L21 29L21 28L22 28L22 29L25 29L25 28L26 28L26 27L27 27L27 29L28 29L28 28L29 28L29 25L28 25L28 24L29 24L29 17L28 17L28 16L29 16L29 13L28 13L28 12L29 12L29 8L25 8L25 9L24 9L24 8L23 8L23 9L21 9L21 6L20 6L20 5L19 5L19 3L20 3L20 4L21 4L21 3L20 3L20 2L21 2L21 0L20 0L20 1L19 1L19 0ZM18 1L18 2L19 2L19 1ZM9 2L9 3L10 3L10 2ZM17 3L17 5L15 5L15 9L13 9L13 8L14 8L14 6L13 6L13 8L12 8L12 9L11 9L11 10L8 10L8 11L9 11L9 12L8 12L8 13L9 13L9 14L10 14L10 16L12 16L12 17L11 17L11 18L10 18L10 17L8 17L8 16L7 16L7 15L8 15L8 14L7 14L7 15L6 15L6 16L5 16L5 17L3 17L3 18L5 18L5 20L7 20L7 19L6 19L6 18L7 18L7 17L8 17L8 18L9 18L9 19L8 19L8 20L9 20L9 19L10 19L10 21L11 21L11 22L10 22L10 23L9 23L9 24L10 24L10 25L11 25L11 26L12 26L12 25L13 25L13 26L15 26L15 25L16 25L16 24L17 24L17 23L18 23L18 22L17 22L17 23L16 23L16 24L15 24L15 25L13 25L13 24L14 24L14 23L15 23L15 22L13 22L13 21L12 21L12 20L13 20L13 19L12 19L12 20L11 20L11 18L12 18L12 17L13 17L13 18L15 18L15 17L16 17L16 16L17 16L17 15L20 15L20 17L19 17L19 16L18 16L18 19L19 19L19 20L18 20L18 21L19 21L19 22L20 22L20 21L19 21L19 20L22 20L22 19L20 19L20 18L22 18L22 17L23 17L23 16L24 16L24 17L26 17L26 18L25 18L25 19L24 19L24 18L23 18L23 20L26 20L26 21L25 21L25 22L27 22L27 23L25 23L25 24L26 24L26 25L24 25L24 26L23 26L23 25L22 25L22 26L20 26L20 27L23 27L23 28L24 28L24 27L25 27L25 26L28 26L28 25L27 25L27 23L28 23L28 20L27 20L27 19L28 19L28 18L27 18L27 15L28 15L28 14L27 14L27 15L24 15L24 13L27 13L27 11L28 11L28 10L25 10L25 11L26 11L26 12L24 12L24 11L21 11L21 9L19 9L19 8L18 8L18 9L19 9L19 11L18 11L18 13L19 13L19 14L17 14L17 15L15 15L15 14L13 14L13 13L12 13L12 12L13 12L13 11L12 11L12 12L11 12L11 13L10 13L10 11L11 11L11 10L12 10L12 9L13 9L13 10L15 10L15 9L16 9L16 6L17 6L17 7L18 7L18 3ZM19 6L19 7L20 7L20 6ZM4 8L4 10L5 10L5 9L7 9L7 8ZM1 9L1 10L2 10L2 9ZM16 10L16 12L15 12L15 11L14 11L14 13L17 13L17 10ZM19 11L19 12L20 12L20 14L21 14L21 13L22 13L22 14L23 14L23 13L22 13L22 12L21 12L21 11ZM12 15L12 16L13 16L13 17L15 17L15 15L14 15L14 16L13 16L13 15ZM22 15L22 16L21 16L21 17L22 17L22 16L23 16L23 15ZM6 16L6 17L7 17L7 16ZM16 18L16 19L17 19L17 18ZM26 18L26 19L27 19L27 18ZM14 19L14 21L17 21L17 20L15 20L15 19ZM21 21L21 24L24 24L24 21ZM22 22L22 23L23 23L23 22ZM12 23L12 24L11 24L11 25L12 25L12 24L13 24L13 23ZM18 24L18 25L19 25L19 24ZM16 26L16 27L18 27L18 26ZM8 27L8 29L9 29L9 27ZM12 27L12 28L13 28L13 27Z" fill="#000000"/></g></g></svg>
