<?xml version="1.0" encoding="UTF-8"?>
<svg xmlns="http://www.w3.org/2000/svg" version="1.1" width="220" height="220" viewBox="0 0 220 220"><rect x="0" y="0" width="220" height="220" fill="#ffffff"/><g transform="scale(6.667)"><g transform="translate(2,2)"><g><g transform="translate(3.5,3.5)"><path fill-rule="evenodd" d="M-3.5 -3.5L3.5 -3.5L3.5 3.5L-3.5 3.5ZM-2.5 -2.5L-2.5 2.5L2.5 2.5L2.5 -2.5Z" fill="#25206a"/><path fill-rule="evenodd" d="M-1.5 -1.5L1.5 -1.5L1.5 1.5L-1.5 1.5Z" fill="#25206a"/></g></g><g><g transform="translate(25.5,3.5)"><g transform="rotate(90)"><path fill-rule="evenodd" d="M-3.5 -3.5L3.5 -3.5L3.5 3.5L-3.5 3.5ZM-2.5 -2.5L-2.5 2.5L2.5 2.5L2.5 -2.5Z" fill="#25206a"/><path fill-rule="evenodd" d="M-1.5 -1.5L1.5 -1.5L1.5 1.5L-1.5 1.5Z" fill="#25206a"/></g></g></g><g><g transform="translate(3.5,25.5)"><g transform="rotate(-90)"><path fill-rule="evenodd" d="M-3.5 -3.5L3.5 -3.5L3.5 3.5L-3.5 3.5ZM-2.5 -2.5L-2.5 2.5L2.5 2.5L2.5 -2.5Z" fill="#25206a"/><path fill-rule="evenodd" d="M-1.5 -1.5L1.5 -1.5L1.5 1.5L-1.5 1.5Z" fill="#25206a"/></g></g></g><path fill-rule="evenodd" d="M9 0L9 1L8 1L8 2L9 2L9 3L8 3L8 4L10 4L10 7L11 7L11 4L12 4L12 5L13 5L13 6L12 6L12 9L13 9L13 8L14 8L14 9L16 9L16 10L15 10L15 11L14 11L14 12L15 12L15 11L16 11L16 12L17 12L17 13L16 13L16 14L15 14L15 13L12 13L12 11L13 11L13 10L11 10L11 11L10 11L10 9L11 9L11 8L6 8L6 9L7 9L7 10L6 10L6 11L8 11L8 9L9 9L9 13L8 13L8 12L6 12L6 13L5 13L5 12L4 12L4 13L5 13L5 14L6 14L6 15L8 15L8 14L9 14L9 16L8 16L8 17L10 17L10 18L11 18L11 19L9 19L9 21L8 21L8 20L6 20L6 21L8 21L8 23L9 23L9 24L8 24L8 29L10 29L10 28L9 28L9 24L10 24L10 26L11 26L11 29L12 29L12 27L13 27L13 26L11 26L11 24L10 24L10 23L11 23L11 21L12 21L12 22L13 22L13 23L12 23L12 25L13 25L13 24L14 24L14 25L15 25L15 24L16 24L16 22L17 22L17 23L18 23L18 24L17 24L17 25L16 25L16 26L15 26L15 27L14 27L14 28L15 28L15 29L18 29L18 28L17 28L17 27L16 27L16 26L18 26L18 27L19 27L19 29L20 29L20 28L21 28L21 29L27 29L27 28L28 28L28 26L29 26L29 25L28 25L28 24L29 24L29 23L28 23L28 24L26 24L26 25L25 25L25 23L27 23L27 22L29 22L29 20L28 20L28 19L27 19L27 16L28 16L28 15L27 15L27 14L25 14L25 13L27 13L27 12L28 12L28 11L27 11L27 12L26 12L26 11L25 11L25 13L24 13L24 14L23 14L23 13L21 13L21 14L22 14L22 15L23 15L23 17L21 17L21 16L20 16L20 15L18 15L18 16L14 16L14 15L17 15L17 13L18 13L18 14L20 14L20 12L21 12L21 11L22 11L22 12L24 12L24 11L22 11L22 10L25 10L25 9L26 9L26 8L25 8L25 9L24 9L24 8L23 8L23 9L22 9L22 8L21 8L21 3L20 3L20 2L19 2L19 3L20 3L20 4L18 4L18 3L17 3L17 2L18 2L18 1L20 1L20 0L15 0L15 1L17 1L17 2L16 2L16 3L17 3L17 4L18 4L18 5L20 5L20 7L19 7L19 6L18 6L18 8L14 8L14 7L15 7L15 6L16 6L16 7L17 7L17 5L16 5L16 4L12 4L12 2L13 2L13 1L11 1L11 2L10 2L10 0ZM14 2L14 3L15 3L15 2ZM10 3L10 4L11 4L11 3ZM8 5L8 7L9 7L9 5ZM13 6L13 7L14 7L14 6ZM0 8L0 9L1 9L1 10L2 10L2 11L0 11L0 14L2 14L2 12L3 12L3 9L5 9L5 8ZM18 8L18 9L21 9L21 10L18 10L18 11L17 11L17 12L18 12L18 13L19 13L19 11L21 11L21 10L22 10L22 9L21 9L21 8ZM27 8L27 9L28 9L28 10L29 10L29 9L28 9L28 8ZM4 10L4 11L5 11L5 10ZM10 12L10 13L11 13L11 15L10 15L10 16L11 16L11 18L13 18L13 19L12 19L12 21L15 21L15 22L16 22L16 21L17 21L17 20L18 20L18 21L20 21L20 20L23 20L23 18L22 18L22 19L20 19L20 18L18 18L18 19L16 19L16 21L15 21L15 20L14 20L14 19L15 19L15 18L16 18L16 17L14 17L14 16L13 16L13 17L12 17L12 15L13 15L13 14L12 14L12 13L11 13L11 12ZM6 13L6 14L8 14L8 13ZM28 13L28 14L29 14L29 13ZM24 14L24 15L25 15L25 16L24 16L24 17L25 17L25 18L24 18L24 19L25 19L25 21L26 21L26 20L27 20L27 19L26 19L26 17L25 17L25 16L27 16L27 15L25 15L25 14ZM3 15L3 16L2 16L2 17L1 17L1 16L0 16L0 21L1 21L1 18L2 18L2 17L3 17L3 18L6 18L6 19L7 19L7 18L6 18L6 17L7 17L7 16L5 16L5 15ZM18 16L18 17L20 17L20 16ZM28 17L28 18L29 18L29 17ZM4 19L4 20L2 20L2 21L5 21L5 19ZM9 21L9 23L10 23L10 21ZM21 21L21 24L24 24L24 21ZM18 22L18 23L19 23L19 22ZM22 22L22 23L23 23L23 22ZM14 23L14 24L15 24L15 23ZM18 24L18 25L19 25L19 26L20 26L20 27L22 27L22 28L23 28L23 27L22 27L22 26L23 26L23 25L20 25L20 24ZM24 25L24 26L25 26L25 25ZM24 27L24 28L25 28L25 27ZM26 27L26 28L27 28L27 27Z" fill="#000000"/></g></g></svg>
