<?xml version="1.0" encoding="UTF-8"?>
<svg xmlns="http://www.w3.org/2000/svg" version="1.1" width="230" height="230" viewBox="0 0 230 230"><rect x="0" y="0" width="230" height="230" fill="#ffffff"/><g transform="scale(6.97)"><g transform="translate(2,2)"><g><g transform="translate(3.5,3.5)"><path fill-rule="evenodd" d="M-3.5 -3.5L3.5 -3.5L3.5 3.5L-3.5 3.5ZM-2.5 -2.5L-2.5 2.5L2.5 2.5L2.5 -2.5Z" fill="#000000"/><path fill-rule="evenodd" d="M-1.5 -1.5L1.5 -1.5L1.5 1.5L-1.5 1.5Z" fill="#000000"/></g></g><g><g transform="translate(25.5,3.5)"><g transform="rotate(90)"><path fill-rule="evenodd" d="M-3.5 -3.5L3.5 -3.5L3.5 3.5L-3.5 3.5ZM-2.5 -2.5L-2.5 2.5L2.5 2.5L2.5 -2.5Z" fill="#000000"/><path fill-rule="evenodd" d="M-1.5 -1.5L1.5 -1.5L1.5 1.5L-1.5 1.5Z" fill="#000000"/></g></g></g><g><g transform="translate(3.5,25.5)"><g transform="rotate(-90)"><path fill-rule="evenodd" d="M-3.5 -3.5L3.5 -3.5L3.5 3.5L-3.5 3.5ZM-2.5 -2.5L-2.5 2.5L2.5 2.5L2.5 -2.5Z" fill="#000000"/><path fill-rule="evenodd" d="M-1.5 -1.5L1.5 -1.5L1.5 1.5L-1.5 1.5Z" fill="#000000"/></g></g></g><path fill-rule="evenodd" d="M8 0L8 1L9 1L9 2L8 2L8 5L9 5L9 4L11 4L11 5L10 5L10 10L9 10L9 11L8 11L8 9L9 9L9 8L8 8L8 9L7 9L7 8L6 8L6 9L4 9L4 8L0 8L0 10L1 10L1 11L0 11L0 13L1 13L1 16L0 16L0 17L1 17L1 18L0 18L0 19L1 19L1 18L2 18L2 17L3 17L3 18L4 18L4 14L5 14L5 15L7 15L7 16L5 16L5 17L7 17L7 16L8 16L8 15L10 15L10 13L11 13L11 16L12 16L12 17L13 17L13 16L12 16L12 14L13 14L13 15L14 15L14 18L13 18L13 21L15 21L15 20L16 20L16 24L15 24L15 22L14 22L14 23L11 23L11 21L10 21L10 22L9 22L9 21L8 21L8 22L9 22L9 23L11 23L11 26L10 26L10 25L8 25L8 29L9 29L9 28L10 28L10 27L11 27L11 26L12 26L12 28L11 28L11 29L12 29L12 28L14 28L14 27L15 27L15 28L17 28L17 27L18 27L18 29L21 29L21 28L22 28L22 29L23 29L23 28L24 28L24 26L26 26L26 27L25 27L25 29L26 29L26 27L27 27L27 29L28 29L28 27L29 27L29 25L28 25L28 27L27 27L27 26L26 26L26 25L27 25L27 24L26 24L26 22L27 22L27 23L28 23L28 24L29 24L29 23L28 23L28 22L29 22L29 21L27 21L27 18L28 18L28 15L29 15L29 13L27 13L27 12L25 12L25 9L27 9L27 8L24 8L24 9L22 9L22 8L21 8L21 9L20 9L20 7L21 7L21 5L20 5L20 4L21 4L21 3L20 3L20 4L19 4L19 6L18 6L18 5L17 5L17 4L18 4L18 3L19 3L19 1L20 1L20 2L21 2L21 1L20 1L20 0L17 0L17 1L18 1L18 3L17 3L17 2L15 2L15 3L14 3L14 5L13 5L13 3L12 3L12 4L11 4L11 2L14 2L14 0L12 0L12 1L11 1L11 0L10 0L10 1L9 1L9 0ZM15 0L15 1L16 1L16 0ZM12 5L12 6L11 6L11 8L12 8L12 6L13 6L13 8L14 8L14 9L15 9L15 10L14 10L14 11L11 11L11 13L12 13L12 12L13 12L13 14L14 14L14 15L16 15L16 18L17 18L17 19L16 19L16 20L17 20L17 19L18 19L18 20L20 20L20 17L21 17L21 18L22 18L22 20L26 20L26 18L25 18L25 17L24 17L24 16L23 16L23 14L22 14L22 13L24 13L24 14L25 14L25 16L26 16L26 17L27 17L27 15L26 15L26 13L25 13L25 12L23 12L23 10L22 10L22 9L21 9L21 11L22 11L22 12L20 12L20 10L19 10L19 12L18 12L18 10L16 10L16 8L17 8L17 7L18 7L18 6L17 6L17 5L14 5L14 6L13 6L13 5ZM8 6L8 7L9 7L9 6ZM14 6L14 7L15 7L15 6ZM16 6L16 7L17 7L17 6ZM19 6L19 7L20 7L20 6ZM28 8L28 10L26 10L26 11L28 11L28 12L29 12L29 11L28 11L28 10L29 10L29 8ZM3 9L3 10L2 10L2 12L1 12L1 13L2 13L2 15L3 15L3 13L4 13L4 12L5 12L5 13L6 13L6 14L7 14L7 15L8 15L8 14L9 14L9 13L8 13L8 11L6 11L6 10L7 10L7 9L6 9L6 10L5 10L5 11L4 11L4 9ZM11 9L11 10L12 10L12 9ZM5 11L5 12L6 12L6 13L7 13L7 14L8 14L8 13L7 13L7 12L6 12L6 11ZM15 11L15 12L14 12L14 14L16 14L16 15L17 15L17 14L18 14L18 12L17 12L17 11ZM16 12L16 13L17 13L17 12ZM19 12L19 16L18 16L18 17L17 17L17 18L18 18L18 17L19 17L19 16L20 16L20 14L21 14L21 15L22 15L22 14L21 14L21 13L20 13L20 12ZM21 16L21 17L22 17L22 16ZM8 17L8 18L11 18L11 17ZM23 17L23 19L24 19L24 17ZM6 18L6 19L4 19L4 20L3 20L3 19L2 19L2 20L1 20L1 21L4 21L4 20L6 20L6 21L7 21L7 20L6 20L6 19L7 19L7 18ZM9 19L9 20L12 20L12 19ZM17 21L17 22L18 22L18 23L17 23L17 24L16 24L16 25L17 25L17 24L18 24L18 27L21 27L21 26L20 26L20 23L19 23L19 22L18 22L18 21ZM21 21L21 24L24 24L24 21ZM22 22L22 23L23 23L23 22ZM18 23L18 24L19 24L19 23ZM12 24L12 26L13 26L13 27L14 27L14 26L15 26L15 27L17 27L17 26L15 26L15 24ZM25 24L25 25L26 25L26 24ZM13 25L13 26L14 26L14 25ZM22 25L22 28L23 28L23 26L24 26L24 25ZM9 26L9 27L10 27L10 26Z" fill="#000000"/></g></g></svg>
