<?xml version="1.0" encoding="UTF-8"?>
<svg xmlns="http://www.w3.org/2000/svg" version="1.1" width="240" height="240" viewBox="0 0 240 240"><rect x="0" y="0" width="240" height="240" fill="#ffffff"/><g transform="scale(8.276)"><g transform="translate(2,2)"><g><g transform="translate(3.5,3.5)"><path fill-rule="evenodd" d="M-3.5 -3.5L3.5 -3.5L3.5 3.5L-3.5 3.5ZM-2.5 -2.5L-2.5 2.5L2.5 2.5L2.5 -2.5Z" fill="#7cd4c0"/><path fill-rule="evenodd" d="M-1.5 -1.5L1.5 -1.5L1.5 1.5L-1.5 1.5Z" fill="#000000"/></g></g><g><g transform="translate(21.5,3.5)"><g transform="rotate(90)"><path fill-rule="evenodd" d="M-3.5 -3.5L3.5 -3.5L3.5 3.5L-3.5 3.5ZM-2.5 -2.5L-2.5 2.5L2.5 2.5L2.5 -2.5Z" fill="#7cd4c0"/><path fill-rule="evenodd" d="M-1.5 -1.5L1.5 -1.5L1.5 1.5L-1.5 1.5Z" fill="#000000"/></g></g></g><g><g transform="translate(3.5,21.5)"><g transform="rotate(-90)"><path fill-rule="evenodd" d="M-3.5 -3.5L3.5 -3.5L3.5 3.5L-3.5 3.5ZM-2.5 -2.5L-2.5 2.5L2.5 2.5L2.5 -2.5Z" fill="#7cd4c0"/><path fill-rule="evenodd" d="M-1.5 -1.5L1.5 -1.5L1.5 1.5L-1.5 1.5Z" fill="#000000"/></g></g></g><path fill-rule="evenodd" d="M8 0L8 1L10 1L10 0ZM14 0L14 1L13 1L13 2L11 2L11 4L10 4L10 3L9 3L9 2L8 2L8 5L9 5L9 6L8 6L8 7L9 7L9 8L8 8L8 10L5 10L5 9L4 9L4 8L0 8L0 9L1 9L1 10L0 10L0 13L1 13L1 15L0 15L0 16L1 16L1 15L3 15L3 17L4 17L4 16L6 16L6 17L8 17L8 18L9 18L9 17L8 17L8 15L9 15L9 13L10 13L10 17L12 17L12 18L10 18L10 19L9 19L9 21L8 21L8 25L9 25L9 23L10 23L10 24L11 24L11 25L15 25L15 24L16 24L16 21L17 21L17 22L18 22L18 23L19 23L19 21L20 21L20 24L19 24L19 25L25 25L25 24L23 24L23 23L24 23L24 22L25 22L25 20L24 20L24 19L25 19L25 15L24 15L24 14L25 14L25 12L23 12L23 11L21 11L21 12L20 12L20 9L23 9L23 10L24 10L24 9L25 9L25 8L24 8L24 9L23 9L23 8L20 8L20 9L19 9L19 10L18 10L18 11L15 11L15 9L18 9L18 8L17 8L17 4L16 4L16 2L17 2L17 0L16 0L16 2L15 2L15 0ZM14 2L14 4L15 4L15 2ZM12 3L12 5L10 5L10 6L9 6L9 7L10 7L10 8L9 8L9 9L10 9L10 10L8 10L8 11L6 11L6 12L5 12L5 11L2 11L2 10L4 10L4 9L2 9L2 10L1 10L1 12L2 12L2 14L3 14L3 15L6 15L6 16L7 16L7 15L8 15L8 13L9 13L9 12L10 12L10 13L11 13L11 11L14 11L14 12L15 12L15 11L14 11L14 8L15 8L15 7L16 7L16 5L15 5L15 7L14 7L14 5L13 5L13 3ZM12 5L12 7L11 7L11 6L10 6L10 7L11 7L11 8L12 8L12 7L13 7L13 5ZM6 8L6 9L7 9L7 8ZM18 11L18 12L19 12L19 11ZM3 12L3 14L4 14L4 13L5 13L5 14L6 14L6 15L7 15L7 14L6 14L6 13L8 13L8 12L6 12L6 13L5 13L5 12ZM12 12L12 14L11 14L11 16L12 16L12 17L13 17L13 16L14 16L14 18L13 18L13 20L12 20L12 19L11 19L11 20L10 20L10 22L12 22L12 21L13 21L13 22L14 22L14 20L15 20L15 21L16 21L16 20L15 20L15 19L16 19L16 18L15 18L15 17L16 17L16 16L17 16L17 15L20 15L20 14L15 14L15 13L13 13L13 12ZM21 12L21 16L24 16L24 15L22 15L22 14L24 14L24 13L22 13L22 12ZM12 14L12 16L13 16L13 14ZM14 15L14 16L16 16L16 15ZM17 17L17 20L20 20L20 17ZM21 17L21 20L22 20L22 21L24 21L24 20L23 20L23 19L22 19L22 17ZM23 17L23 18L24 18L24 17ZM18 18L18 19L19 19L19 18ZM11 20L11 21L12 21L12 20ZM21 22L21 24L22 24L22 22ZM11 23L11 24L13 24L13 23ZM14 23L14 24L15 24L15 23Z" fill="#000000"/></g></g></svg>
