<?xml version="1.0" encoding="UTF-8"?>
<svg xmlns="http://www.w3.org/2000/svg" version="1.1" width="210" height="210" viewBox="0 0 210 210"><rect x="0" y="0" width="210" height="210" fill="#ffffff"/><g transform="scale(7.241)"><g transform="translate(2,2)"><g><g transform="translate(3.5,3.5)"><path fill-rule="evenodd" d="M-3.5 -3.5L3.5 -3.5L3.5 3.5L-3.5 3.5ZM-2.5 -2.5L-2.5 2.5L2.5 2.5L2.5 -2.5Z" fill="#000000"/><path fill-rule="evenodd" d="M-1.5 -1.5L1.5 -1.5L1.5 1.5L-1.5 1.5Z" fill="#000000"/></g></g><g><g transform="translate(21.5,3.5)"><g transform="rotate(90)"><path fill-rule="evenodd" d="M-3.5 -3.5L3.5 -3.5L3.5 3.5L-3.5 3.5ZM-2.5 -2.5L-2.5 2.5L2.5 2.5L2.5 -2.5Z" fill="#000000"/><path fill-rule="evenodd" d="M-1.5 -1.5L1.5 -1.5L1.5 1.5L-1.5 1.5Z" fill="#000000"/></g></g></g><g><g transform="translate(3.5,21.5)"><g transform="rotate(-90)"><path fill-rule="evenodd" d="M-3.5 -3.5L3.5 -3.5L3.5 3.5L-3.5 3.5ZM-2.5 -2.5L-2.5 2.5L2.5 2.5L2.5 -2.5Z" fill="#000000"/><path fill-rule="evenodd" d="M-1.5 -1.5L1.5 -1.5L1.5 1.5L-1.5 1.5Z" fill="#000000"/></g></g></g><path fill-rule="evenodd" d="M8 0L8 1L10 1L10 2L9 2L9 5L10 5L10 8L9 8L9 6L8 6L8 8L9 8L9 10L8 10L8 11L7 11L7 10L5 10L5 11L7 11L7 12L6 12L6 13L5 13L5 12L4 12L4 10L1 10L1 11L0 11L0 17L1 17L1 15L2 15L2 17L3 17L3 16L4 16L4 17L8 17L8 18L9 18L9 15L10 15L10 17L11 17L11 16L12 16L12 17L14 17L14 19L13 19L13 20L12 20L12 21L11 21L11 19L12 19L12 18L10 18L10 21L9 21L9 20L8 20L8 22L10 22L10 23L8 23L8 25L12 25L12 24L13 24L13 23L14 23L14 24L16 24L16 25L18 25L18 24L16 24L16 21L18 21L18 22L17 22L17 23L18 23L18 22L19 22L19 21L21 21L21 16L22 16L22 18L24 18L24 19L23 19L23 22L20 22L20 23L19 23L19 24L21 24L21 25L22 25L22 24L24 24L24 25L25 25L25 21L24 21L24 19L25 19L25 18L24 18L24 16L25 16L25 14L24 14L24 13L25 13L25 10L24 10L24 9L25 9L25 8L24 8L24 9L19 9L19 8L18 8L18 9L17 9L17 10L16 10L16 7L17 7L17 4L16 4L16 7L15 7L15 6L14 6L14 5L10 5L10 3L11 3L11 4L14 4L14 3L16 3L16 2L15 2L15 1L14 1L14 0L13 0L13 2L12 2L12 3L11 3L11 1L10 1L10 0ZM11 6L11 7L12 7L12 6ZM13 6L13 7L14 7L14 6ZM0 8L0 9L2 9L2 8ZM3 8L3 9L5 9L5 8ZM6 8L6 9L7 9L7 8ZM11 8L11 9L12 9L12 11L11 11L11 12L10 12L10 13L9 13L9 14L8 14L8 12L7 12L7 13L6 13L6 14L5 14L5 15L4 15L4 14L3 14L3 15L4 15L4 16L5 16L5 15L6 15L6 16L8 16L8 15L9 15L9 14L10 14L10 15L12 15L12 16L14 16L14 17L15 17L15 19L16 19L16 16L17 16L17 14L16 14L16 15L14 15L14 14L13 14L13 13L15 13L15 12L16 12L16 11L15 11L15 10L14 10L14 11L13 11L13 9L15 9L15 8ZM18 9L18 10L17 10L17 13L18 13L18 14L19 14L19 15L18 15L18 16L19 16L19 15L20 15L20 16L21 16L21 15L20 15L20 13L21 13L21 14L23 14L23 13L24 13L24 12L21 12L21 10L20 10L20 12L19 12L19 11L18 11L18 10L19 10L19 9ZM9 10L9 11L10 11L10 10ZM22 10L22 11L24 11L24 10ZM2 12L2 13L1 13L1 14L2 14L2 13L3 13L3 12ZM12 12L12 13L11 13L11 14L12 14L12 15L13 15L13 14L12 14L12 13L13 13L13 12ZM18 12L18 13L19 13L19 12ZM6 14L6 15L7 15L7 14ZM23 15L23 16L24 16L24 15ZM17 17L17 20L20 20L20 17ZM18 18L18 19L19 19L19 18ZM13 20L13 21L12 21L12 23L10 23L10 24L12 24L12 23L13 23L13 21L15 21L15 20ZM14 22L14 23L15 23L15 22ZM21 23L21 24L22 24L22 23Z" fill="#000000"/></g></g></svg>
